<?xml version="1.0" standalone="no"?><!DOCTYPE svg PUBLIC "-//W3C//DTD SVG 1.1//EN"
  "http://www.w3.org/Graphics/SVG/1.1/DTD/svg11.dtd">
<svg t="1504666874062" class="icon" style="" viewBox="0 0 1366 1024" version="1.1" xmlns="http://www.w3.org/2000/svg"
     p-id="4605" xmlns:xlink="http://www.w3.org/1999/xlink" width="42.6875" height="32">
  <path
    d="M583.509333 232.448c66.218667 0 302.933333 0 369.152 0 19.797333 0 33.28 10.922667 36.352 28.842667 2.901333 17.578667-9.386667 34.986667-27.136 37.888-3.584 0.682667-7.338667 0.853333-11.093333 0.853333-131.584 0-433.834667 0-565.418667 0-19.968 0-33.450667-9.216-37.376-25.770667-5.290667-21.845333 10.410667-41.472 33.792-41.642667 19.114667-0.341333 38.229333 0 57.344 0C487.082667 232.277333 535.381333 232.448 583.509333 232.448L583.509333 232.448z"
    p-id="4606"></path>
  <path
    d="M583.509333 495.274667c66.218667 0 302.933333 0 369.152 0 19.797333 0 33.28 10.922667 36.352 28.842667 2.901333 17.578667-9.386667 34.986667-27.136 37.888-3.584 0.682667-7.338667 0.853333-11.093333 0.853333-131.584 0-433.834667 0-565.418667 0-19.968 0-33.450667-9.386667-37.376-25.770667-5.290667-21.845333 10.410667-41.472 33.792-41.642667 19.114667-0.341333 38.229333 0 57.344 0C487.082667 495.104 535.381333 495.274667 583.509333 495.274667L583.509333 495.274667z"
    p-id="4607"></path>
  <path
    d="M584.533333 758.101333c66.218667 0 302.933333 0 369.152 0 19.797333 0 33.28 10.922667 36.352 28.842667 2.901333 17.578667-9.386667 34.986667-27.136 37.888-3.584 0.682667-7.338667 0.853333-11.093333 0.853333-131.584 0-433.834667 0-565.418667 0-19.968 0-33.450667-9.386667-37.376-25.770667-5.290667-21.845333 10.410667-41.472 33.792-41.642667 19.114667-0.341333 38.229333 0 57.344 0C488.106667 757.930667 536.234667 758.101333 584.533333 758.101333L584.533333 758.101333z"
    p-id="4608"></path>
</svg>
